# xmcd CD database file
#
# Track frame offsets:
#	150
#	24250
#	47085
#	74642
#	95217
#	123200
#	146787
#	173475
#	197927
#	217395
#	242637
#
# Disc length: 3620 seconds
#
# Revision: 0
# Processed by: cddbd v1.4PL0 Copyright (c) Steve Scherf et al.
# Submitted via: CDex 1.50beta9
#
DISCID=aa0e220b
DTITLE=Charanga Forever - La Charanga Soy Yo
DYEAR=2000
DGENRE=Salsa
TTITLE0=La Charanga Soy Yo
TTITLE1=La Chica de los Ojos Verdes
TTITLE2=Tumba Tumba
TTITLE3=Aqui Se Goza
TTITLE4=Me Criticas
TTITLE5=Cuentas Claras
TTITLE6=Se Que He Fallado
TTITLE7=Hay Algo en Mi
TTITLE8=Mi Mecanica
TTITLE9=El Jony
TTITLE10=Homenaje a las Estrellas
EXTD=YEAR: 2000
EXTT0=
EXTT1=
EXTT2=
EXTT3=
EXTT4=
EXTT5=
EXTT6=
EXTT7=
EXTT8=
EXTT9=
EXTT10=
PLAYORDER=
